<?xml version="1.0" encoding="utf-8"?>
<!-- Generator: Adobe Illustrator 26.0.2, SVG Export Plug-In . SVG Version: 6.00 Build 0)  -->
<svg version="1.1" id="ifad-geoscan" xmlns="http://www.w3.org/2000/svg" xmlns:xlink="http://www.w3.org/1999/xlink" x="0px"
	 y="0px" viewBox="0 0 2176.2 417" style="enable-background:new 0 0 2176.2 417;" xml:space="preserve">
<g id="geoscan-icon">
	<g>
		<path style="fill:#00BBD7;" d="M1544.9,224.2c17.8,10.4,29.8,17.5,46.2,28.9c15.6-9.8,27-17.1,41.8-28.8
			c0.4-20.4,0.4-34.6-4.3-59.4c-14.7-10-22.9-15.2-44.6-27.3c-12.2,8.8-20.2,14.3-41.9,27.3C1543.5,184.7,1544.4,198.7,1544.9,224.2
			"/>
		<path style="fill:#439F35;" d="M1484.5,124.8c13.2,7.5,13.2,7.5,49.3,26.6c16.5-9.7,27.5-16.3,41.9-26.5
			c-4.4-16.7-7.7-28.1-15.2-45.2c-32.3-15.3-32.3-15.3-37.4-17.8c-8.1,4.6-12.1,6.9-33.5,17.7
			C1487.4,93.3,1485.9,103.2,1484.5,124.8"/>
		<path style="fill:#F7941D;" d="M1395.7,123.5c7.7,9.3,12.7,14.6,28.1,26.5c13.6-8.3,21.8-13.2,46-26.4c2-16.8,3.5-28.2,7.8-44.9
			c-9.7-6.9-14.8-10.9-19.6-17.6c-13,5.8-23.2,10.4-37.1,17.5C1410.8,92.3,1404,102.1,1395.7,123.5"/>
		<path style="fill:#E65925;" d="M1430.2,222.6c16.4,10.3,25.4,15.8,49.5,29c2.5-1.5,2.5-1.5,50.4-28.9c-0.6-20.7-1.1-33.6-2.6-59.3
			c-26.4-13.9-34.3-18.2-49.9-27.2c-17.4,9.6-30.1,16.7-47,27.2C1429.1,183.1,1428.4,196.9,1430.2,222.6"/>
		<path style="fill:#CE1432;" d="M1352.5,221c8.8,10.6,14.3,16.6,30.6,29.1c9-9.5,14.9-15.6,32.6-29c-1.1-20.5-1.6-34.7,1.1-59.2
			c-13-10.3-20.1-16.4-28.6-27.1c-12.8,9.3-21.4,15.7-31.8,27.1C1348.3,203.4,1352.5,220.9,1352.5,221"/>
	</g>
	<path style="fill:#9C9E9F;" d="M1301.5,164c7.7-44.5,31.8-86,66.3-115.7c17.3-14.8,37.2-26.7,58.5-34.9
		c21.4-8.2,44.2-12.6,67.1-13.1c22.9-0.6,45.9,2.8,67.8,10c21.8,7.2,42.4,18.1,60.7,32.1c18.2,14.1,34,31.3,46.5,50.6
		c3,4.9,5.8,9.9,8.7,14.9c2.6,5.2,5,10.4,7.5,15.6c2,5.4,4.1,10.8,6,16.2c0.7,2.8,1.1,5.7,1.2,8.6c0.1,2.9-0.1,5.9-1,9l-2.3,0.5
		c-2.4-2.3-4.1-4.7-5.5-7.1c-1.4-2.4-2.5-4.9-3.3-7.5c-2-5-3.8-10.2-5.7-15.2c-2.3-4.9-4.6-9.8-7-14.7c-2.7-4.7-5.4-9.4-8.2-14.1
		c-11.7-18.3-26.6-34.6-43.7-47.9c-17.1-13.4-36.5-24-57.1-31c-20.6-7-42.4-10.4-64.2-10.3c-43.7,0.1-87.2,15.7-121.3,43.6
		c-17.1,13.8-31.9,30.6-43.5,49.4c-2.7,4.8-5.5,9.6-8.1,14.5c-2.3,5-4.7,10-6.9,15.1c-1.9,5.2-3.8,10.4-5.7,15.6l-4.3,16.1
		L1301.5,164z"/>
</g>
<g id="geoscan">
	<path d="M1327.4,377.5c-13.4,17.3-31,23.9-47.8,23.9c-53.9,0-85.6-40.2-85.6-90.5c0-51.7,31.7-92,85.6-92c35.6,0,69.3,22,73.4,61.5
		h-36.6c-4.4-19.3-18.8-29.3-36.8-29.3c-34.4,0-47.3,29.3-47.3,59.8c0,29,12.9,58.3,47.3,58.3c24.9,0,39.3-13.4,41.5-37.6h-38.5
		v-28.5h73.2v94.2h-24.4L1327.4,377.5z"/>
	<path d="M1399.4,342.6c1,22,11.7,32,31,32c13.9,0,25.1-8.5,27.3-16.3h30.5c-9.8,29.8-30.5,42.4-59,42.4
		c-39.8,0-64.4-27.3-64.4-66.3c0-37.8,26.1-66.6,64.4-66.6c42.9,0,63.7,36.1,61.2,74.9H1399.4z M1455.7,320.6
		c-3.2-17.6-10.7-26.8-27.6-26.8c-22,0-28.3,17.1-28.8,26.8H1455.7z"/>
	<path d="M1564.7,267.7c39.8,0,65.4,26.3,65.4,66.6c0,40-25.6,66.3-65.4,66.3c-39.5,0-65.1-26.3-65.1-66.3
		C1499.6,294,1525.2,267.7,1564.7,267.7z M1564.7,374.5c23.7,0,30.7-20.2,30.7-40.2c0-20.2-7.1-40.5-30.7-40.5
		c-23.4,0-30.5,20.2-30.5,40.5C1534.2,354.3,1541.3,374.5,1564.7,374.5z"/>
	<path d="M1675,339.4c0,23.2,18.1,32.2,38.5,32.2c13.4,0,33.9-3.9,33.9-21.7c0-18.8-26.1-22-51.7-28.8c-25.9-6.8-52-16.8-52-49.5
		c0-35.6,33.7-52.7,65.1-52.7c36.3,0,69.8,15.9,69.8,56.1h-37.1c-1.2-21-16.1-26.3-34.4-26.3c-12.2,0-26.3,5.1-26.3,19.8
		c0,13.4,8.3,15.1,52,26.3c12.7,3.2,51.7,11.2,51.7,50.7c0,32-25.1,55.9-72.4,55.9c-38.5,0-74.6-19-74.2-62H1675z"/>
	<path d="M1883.3,315.5c-2.2-14.1-11.2-21.7-25.6-21.7c-22.2,0-29.5,22.4-29.5,41c0,18,7.1,39.8,28.8,39.8
		c16.1,0,25.4-10.2,27.6-25.6h33.4c-4.4,33.4-27.6,51.7-60.7,51.7c-38.1,0-63.7-26.8-63.7-64.6c0-39.3,23.4-68.3,64.4-68.3
		c29.8,0,57.1,15.6,59.3,47.8H1883.3z"/>
	<path d="M1928.7,309.9c2-32.4,31-42.2,59.3-42.2c25.1,0,55.4,5.6,55.4,35.9v65.6c0,11.5,1.2,22.9,4.4,28.1h-35.1
		c-1.2-3.9-2.2-8.1-2.4-12.2c-11,11.5-27.1,15.6-42.4,15.6c-23.9,0-42.9-12-42.9-37.8c0-28.5,21.5-35.4,42.9-38.3
		c21.2-3.2,41-2.4,41-16.6c0-14.9-10.2-17.1-22.4-17.1c-13.2,0-21.7,5.4-22.9,19H1928.7z M2008.7,335.5c-5.9,5.1-18.1,5.4-28.8,7.3
		c-10.7,2.2-20.5,5.9-20.5,18.5c0,12.9,10,16.1,21.2,16.1c27.1,0,28.1-21.5,28.1-29V335.5z"/>
	<path d="M2057.9,271.1h32.9v17.6h0.7c8.8-14.1,23.9-21,38.5-21c36.8,0,46.1,20.7,46.1,52v77.6h-34.6V326c0-20.7-6.1-31-22.2-31
		c-18.8,0-26.8,10.5-26.8,36.1v66.1h-34.6V271.1z"/>
</g>
<g id="divider">
	<rect x="1009.3" style="fill:#9C9E9F;" width="2.7" height="414.6"/>
</g>
<g id="ifad-logo" transform="translate(-19.803148,-169.52663)">
	<g id="tagline">
		<path id="path4" d="M19.8,513.1h7.5v56.6h-7.5V513.1z"/>
		<path id="path6" d="M38.6,528.8H45v6.5h0.1c2.9-5.1,7.5-7.5,13.3-7.5c10.8,0,14.1,6.2,14.1,15v27h-6.6v-27.8c0-5-3.2-8.3-8.3-8.3
			c-8.2,0-12.2,5.5-12.2,12.9v23.1h-6.8V528.8z"/>
		<path id="path8" d="M100.9,569.7h-7.2l-15.2-41H86L97.5,563h0.3l11.2-34.2h7.1L100.9,569.7z"/>
		<path id="path10" d="M156.9,556.7c-1.8,9-8.3,14-17.6,14c-13,0-19.2-9-19.7-21.6c0-12.3,8-21.3,19.2-21.3
			c14.5,0,19,13.6,18.6,23.5h-30.6c-0.3,7.2,3.9,13.4,12.7,13.4c5.5,0,9.4-2.6,10.7-8L156.9,556.7L156.9,556.7z M150.3,545.4
			c-0.3-6.4-5.1-11.6-11.8-11.6c-7.1,0-11.2,5.3-11.8,11.6H150.3z"/>
		<path id="path12" d="M168.2,556.9c0.3,6.1,5.5,7.9,11.1,7.9c4.2,0,10-1,10-6.1c0-5.3-6.6-6.1-13.4-7.6
			c-6.6-1.5-13.4-3.7-13.4-11.6c0-8.3,8.2-11.6,15.4-11.6c9,0,16.2,2.9,16.8,12.9h-6.8c-0.4-5.3-5.1-6.9-9.6-6.9
			c-4,0-8.7,1.1-8.7,5.3c0,4.8,7.1,5.7,13.4,7.2c6.8,1.5,13.4,3.7,13.4,11.6c0,9.7-9.1,12.9-17.4,12.9c-9.1,0-17-3.7-17.3-13.8
			H168.2z"/>
		<path id="path14" d="M212.8,528.8h8.2v6h-8.2v25.5c0,3,0.8,3.6,5.1,3.6h3v6h-5.1c-6.9,0-9.7-1.4-9.7-9v-26.2h-6.9v-6h6.9v-12.3
			h6.8L212.8,528.8z"/>
		<path id="path16" d="M235.3,521.4h-6.8v-8.3h6.8V521.4z M228.6,528.8h6.8v41h-6.8V528.8z"/>
		<path id="path18" d="M245.5,528.8h6.4v6.5h0.1c2.8-5.1,7.5-7.5,13.3-7.5c10.8,0,14.1,6.2,14.1,15v27h-6.8v-27.8
			c0-5-3.2-8.3-8.3-8.3c-8.2,0-12.2,5.5-12.2,12.9v23.1h-6.8v-40.8H245.5z"/>
		<path id="path20" d="M324.6,566.3c0,13.3-6.1,20.2-19.1,20.2c-7.8,0-16.6-3-17-12h6.8c0.3,5,6.2,6.6,10.7,6.6
			c8.9,0,12.3-6.4,12.3-15.5V563h-0.1c-2.2,5-7.6,7.5-12.7,7.5c-12.2,0-18.3-9.6-18.3-20.8c0-9.7,4.7-21.6,19-21.6
			c5.1,0,9.7,2.4,12.2,6.8h-0.1h0.1V529h6.4L324.6,566.3z M318,548.4c0-7.2-3.2-14.7-11.6-14.7c-8.7,0-12.2,7.1-12.2,15
			c0,7.3,2.6,15.6,11.6,15.6C314.7,564.3,318,556.2,318,548.4L318,548.4z"/>
		<path id="path22" d="M363.4,521.4h-6.8v-8.3h6.8V521.4z M356.6,528.8h6.8v41h-6.8V528.8z"/>
		<path id="path24" d="M373.5,528.8h6.4v6.5h0.1c2.9-5.1,7.5-7.5,13.3-7.5c10.8,0,14.1,6.2,14.1,15v27h-6.8v-27.8
			c0-5-3.2-8.3-8.3-8.3c-8.2,0-12.2,5.5-12.2,12.9v23.1h-6.8v-40.8H373.5z"/>
		<path id="path26" d="M438.8,528.8h6.4v8.7h0.1c3.3-6.6,7.8-9.8,15.1-9.6v7.2c-10.9,0-14.8,6.2-14.8,16.6V570h-6.8
			C438.8,569.7,438.8,528.8,438.8,528.8L438.8,528.8z"/>
		<path id="path28" d="M499.2,569.7h-6.4v-6.5h-0.1c-2.9,5.1-7.5,7.5-13.3,7.5c-10.8,0-14.1-6.2-14.1-15v-27h6.8v27.8
			c0,5,3.2,8.3,8.3,8.3c8.2,0,12.2-5.5,12.2-12.9v-23.1h6.8v40.8H499.2z"/>
		<path id="path30" d="M508.8,528.8h6.4v8.7h0.1c3.3-6.6,7.8-9.8,15.1-9.6v7.2c-10.8,0-14.8,6.2-14.8,16.6V570h-6.8V528.8z"/>
		<path id="path32" d="M571.5,569.6c-1.2,0.7-2.8,1.1-4.8,1.1c-3.5,0-5.7-1.9-5.7-6.4c-3.7,4.3-8.7,6.4-14.4,6.4
			c-7.5,0-13.6-3.3-13.6-11.5c0-9.3,6.9-11.2,13.8-12.6c7.5-1.4,13.8-1,13.8-6.1c0-5.8-4.8-6.8-9.1-6.8c-5.7,0-10,1.8-10.2,7.8h-6.8
			c0.4-10.1,8.3-13.7,17.3-13.7c7.3,0,15.4,1.7,15.4,11.2v21c0,3.2,0,4.6,2.1,4.6c0.6,0,1.2-0.1,2.1-0.4L571.5,569.6z M560.5,548.6
			c-2.6,1.9-7.8,1.9-12.2,2.8s-8.3,2.4-8.3,7.3c0,4.4,3.9,6,7.9,6c8.9,0,12.6-5.5,12.6-9.3L560.5,548.6z"/>
		<path id="path34" d="M577.8,513.1h6.8v56.6h-6.8V513.1z"/>
		<path id="path36" d="M616.7,528.8h6.8v5.5h0.1c2.2-4.6,7.5-6.5,13-6.5c12.6,0,18.8,10,18.8,21.6s-6.2,21.3-18.7,21.3
			c-4.2,0-10.2-1.7-13.3-6.4h-0.1v21.2h-6.8L616.7,528.8z M635.7,533.8c-9,0-12.6,7.8-12.6,15.5c0,8,3.6,15.5,12.9,15.5
			c9.1,0,12.3-7.9,12.3-15.9C648.4,541.2,644.4,533.8,635.7,533.8L635.7,533.8z"/>
		<path id="path38" d="M698.3,556.7c-1.8,9-8.3,14-17.6,14c-13.2,0-19.2-9-19.7-21.6c0-12.3,8-21.3,19.2-21.3
			c14.5,0,19,13.6,18.6,23.5h-30.7c-0.3,7.2,3.9,13.4,12.7,13.4c5.5,0,9.4-2.6,10.7-8C691.6,556.7,698.3,556.7,698.3,556.7
			L698.3,556.7z M691.8,545.4c-0.3-6.4-5.1-11.6-11.8-11.6c-7.1,0-11.2,5.3-11.8,11.6H691.8z"/>
		<path id="path40" d="M723.2,527.8c13,0,19.9,9.4,19.9,21.5c0,11.9-6.9,21.5-19.9,21.5c-13,0-19.9-9.4-19.9-21.5
			C703.3,537.2,710.2,527.8,723.2,527.8z M723.2,564.8c7.1,0,12.7-5.5,12.7-15.5c0-10-5.7-15.5-12.7-15.5c-7.1,0-12.7,5.5-12.7,15.5
			C710.5,559.2,716.1,564.8,723.2,564.8z"/>
		<path id="path42" d="M751,528.8h6.8v5.5h0.1c2.2-4.6,7.5-6.5,13.2-6.5c12.6,0,18.8,10,18.8,21.6s-6.2,21.3-18.7,21.3
			c-4.2,0-10.2-1.7-13.3-6.4h-0.1v21.2H751V528.8z M770,533.8c-9,0-12.6,7.8-12.6,15.5c0,8,3.6,15.5,12.9,15.5
			c9.1,0,12.3-7.9,12.3-15.9C782.7,541.2,778.7,533.8,770,533.8L770,533.8z"/>
		<path id="path44" d="M798,513.1h6.8v56.6H798V513.1z"/>
		<path id="path46" d="M849.9,556.7c-1.8,9-8.3,14-17.6,14c-13,0-19.2-9-19.7-21.6c0-12.3,8-21.3,19.2-21.3
			c14.5,0,19,13.6,18.6,23.5h-30.7c-0.3,7.2,3.9,13.4,12.7,13.4c5.5,0,9.4-2.6,10.7-8C843.2,556.7,849.9,556.7,849.9,556.7
			L849.9,556.7z M843.4,545.4c-0.3-6.4-5.1-11.6-11.8-11.6c-7.1,0-11.2,5.3-11.8,11.6H843.4z"/>
	</g>
	<g id="ifad">
		<g id="g52">
			<path id="path50" d="M228.8,449.4h31.3V326.7h-31.3V449.4z M282.4,449.4h30v-46.8h35.7v-27.5h-35.7v-20.9h37.1v-27.5h-67.1V449.4
				z M429.4,431.7l6,17.7h34.1l-48.7-122.8h-24.6l-49.3,122.8h33.6l6.5-17.7C386.8,431.7,429.4,431.7,429.4,431.7z M408,364.7h0.3
				h0.1l12.6,42.1h-25.6L408,364.7z M480.4,449.4h42.9c46.7,0,63.3-28.2,63.3-61.7c0-13.4-2.8-26.6-11.4-38.2
				c-15.9-22.8-40.4-22.8-54.3-22.8h-40.7v122.8L480.4,449.4z M511.7,354.2h13.6c14,0,20.2,5.8,23.9,11.4c4.4,6.9,6,15.8,6,22.7
				c0,17.4-6.6,33.6-30,33.6h-13.4V354.2z"/>
		</g>
	</g>
	<g id="grain">
		<path id="path56" d="M149.1,255.6"/>
		<path id="path58" d="M70.9,255.6"/>
		<path id="path60" d="M109.9,255.9c-1.7-2.2-2.4-3.6-4.3-5.5c-1.8-1.8-2.9-2.8-5.1-4.2c-1.5-1-2.5-1.2-4-2.1
			c-1.8-1.1-2.9-1.8-4.4-3.2c-1.5-1.4-2.4-2.4-3.6-4.2c-1.7-2.4-2.6-3.7-3.6-6.4c-1-2.4-1.2-3.7-1.7-6.1c-0.3-2.5-0.3-4,0.1-6.6
			c0.3-1.9,0.6-3,1.1-4.8c0.4-1.1,0.6-1.8,1.1-2.8s0.8-1.4,1.7-2.2v-38.3h2.4v39l0,0c0.1,2.1,0,3.5,0.4,5.5c0.4,1.9,0.8,3,1.9,4.7
			c1.2,1.8,2.1,2.9,4,4c1,0.7,1.5,1.1,2.8,1.4c0.6,0.1,1.4,0,1.4,0c-0.6-1.8-1-4-1-6.5c0-2.6,0.3-5.1,1-6.9v-41.3l0,0h2.4V207l0,0
			l0.1-0.1l0,0c0.7-0.7,1-1.2,1.7-1.8c0.7-0.6,1-0.8,1.7-1.1c0.7-0.4,1.1-0.6,1.8-0.7c0.8-0.3,2.2-0.3,2.2-0.3s1.4,0,2.2,0.3
			c0.7,0.1,1.1,0.4,1.8,0.7c0.7,0.4,1.1,0.7,1.7,1.1c0.7,0.7,1,1.1,1.7,1.8l0,0l0.1,0.1l0,0v-37.5h2.4l0,0v41.4c0.7,1.8,1,4.3,1,6.9
			c0,2.5-0.4,4.7-1,6.5c0,0,1,0,1.5,0c1.2-0.3,1.7-0.7,2.8-1.4c1.8-1.1,2.8-2.1,4-4c1.1-1.7,1.4-2.8,1.9-4.7
			c0.6-2.1,0.3-3.3,0.4-5.5l0,0v-39h2.4V208c0.7,0.7,1.1,1.2,1.7,2.2c0.6,1.1,0.7,1.7,1.1,2.8c0.6,1.8,0.8,2.9,1.1,4.8
			c0.3,2.5,0.4,4,0.1,6.6c-0.3,2.5-0.7,3.9-1.5,6.1c-1.1,2.6-1.9,4-3.7,6.4c-1.2,1.7-1.9,2.6-3.6,4.2c-1.5,1.4-2.6,2.1-4.4,3.2
			c-1.5,1-2.5,1.1-4,2.1c-2.2,1.4-3.3,2.4-5.1,4.2C112.3,252.3,111.6,253.7,109.9,255.9L109.9,255.9z"/>
		<path id="path62" d="M109.9,288.9c-3.2-5.4-7.6-10-12.7-13.4c0,0-1.9-1.4-7.1-4.2c-4-2.4-6.6-5.1-9-8
			c-13.4-19.9-6.1-37.9-4.7-37.7l0.1-0.1l-0.1,0.1v-55.9l0,0h2.4V230l0,0c0,0-1.1,6.9,9.4,11.6c6.8,3,15.8,11.2,21.9,21.6
			c6.1-10.5,15.1-18.7,21.9-21.6c10.5-4.7,9.4-11.6,9.4-11.6l0,0v-60.4h2.2l0,0v55.9l-0.1-0.1l0.1,0.1c1.4-0.4,8.7,17.7-4.7,37.7
			c-2.4,2.9-5,5.7-9.1,8c-5,2.8-7.1,4.2-7.1,4.2C117.5,278.9,113.1,283.5,109.9,288.9L109.9,288.9z"/>
		<path id="path64" d="M109.9,322.2c0,0-3.3-10.8-15.9-15.5c-42.6-15.8-27.1-49.3-25.6-50.8v-86.2h2.4v86l0,0c0.1,1,0.3,3.5,1.2,6.1
			c1.2,3.3,3.5,6.9,5.5,8.3c5.3,3.2,8.9,3.9,13.7,6.5c4.4,2.4,10,6.1,18.4,15.9c8.6-9.8,14.1-13.6,18.4-15.9c5-2.6,8.6-3.3,13.7-6.5
			c2.2-1.4,4.3-5,5.5-8.3c1-2.6,1.2-5.1,1.2-6.1l0,0v-86h2.4v86.2c1.5,1.5,17,35-25.6,50.8C113.2,311.3,109.9,322.2,109.9,322.2z"/>
		<path id="path66" d="M47.8,449.4H20.1v-24.4h27.5c12,0,21.9-9.8,21.9-21.9v-76.4H93V404C93.2,429.1,72.8,449.4,47.8,449.4
			L47.8,449.4z"/>
		<path id="path68" d="M172.4,449.4H200v-24.4h-27.5c-12,0-21.9-9.8-21.9-21.9v-76.4h-23.5V404C127,429.1,147.2,449.4,172.4,449.4z"
			/>
		<path id="path70" d="M47.4,478.9H20.1v-24.4h27.5c31.3,0,50.7-24.5,50.7-51.4v-76.4h23.5V404C121.8,444.6,89.6,478.9,47.4,478.9
			L47.4,478.9z"/>
	</g>
</g>
</svg>
